<?xml version="1.0" standalone="no"?><!DOCTYPE svg PUBLIC "-//W3C//DTD SVG 1.1//EN" "http://www.w3.org/Graphics/SVG/1.1/DTD/svg11.dtd"><svg t="1552204663925" class="icon" style="" viewBox="0 0 1024 1024" version="1.1" xmlns="http://www.w3.org/2000/svg" p-id="3970" xmlns:xlink="http://www.w3.org/1999/xlink" width="22" height="22"><defs><style type="text/css"></style></defs><path d="M831.13999587 183.82157255l-302.21054748 0c-12.55227733 0-4.21475214 29.28437817-4.21475214 41.9181568 0 12.62097067 0.04540757 4.55938389 12.6791862 4.5593839l295.16306205 0L831.13999587 183.82157255zM127.97959737 498.01971371l0 70.50046464 335.94137258 0 0-70.50046464c0-55.06888249-44.60185941-99.66841287-99.66957795-99.66841288l-136.61269675 0C172.5698139 398.35013575 127.97959737 442.95083122 127.97959737 498.01971371zM551.28044317 630.15336163l-474.22367062 0L77.05677369 89.69055118l850.29833386 0-0.06985728 325.76076687c30.59770482 7.94515683 42.63187001 24.39084146 67.17174216 48.13666304 0.64501987 0.65549881 1.22134642 1.30051869 1.87684522 1.95834652L996.33383651 100.12380957c-0.08033621-46.17831651-37.52992427-83.71988366-83.63954744-83.71988367l-833.7955988 0c-46.17948046 0-73.50667719 37.46123093-73.50667718 83.65119033l0 532.55141831c0 46.18995939 27.32719673 69.45259747 73.50667718 69.45259748l467.15173547 0L551.28044317 630.15336163zM414.26490027 245.7074085c0-65.6628133-53.26073059-118.92470784-118.92470784-118.92470784-65.67562126 0-118.93635186 53.26073059-118.93635186 118.92470784 0 65.68609906 53.26073059 118.93518677 118.93635186 118.93518677C361.00416967 364.64259641 414.26490027 311.46220203 414.26490027 245.7074085zM981.51350955 537.2786176c-51.53407886-49.8761216-123.77283811-52.61571072-171.62075478-6.28836352l-33.70637539 32.62474467c-12.97841038 12.55227733-13.04826766 33.05087659-0.20840903 45.68232619 12.92135993 12.70247197 33.91478443 12.77232925 46.83614435 0.15019463l33.7063754-32.62474467c24.74828003-23.96470955 57.22166613-14.07284793 78.37692814 6.42575132 11.2505947 10.89432007 17.45745693 25.39329991 17.45745693 40.7771466 0 15.36172373-6.20686336 29.87234759-17.45745693 40.76666766l-106.30373717 102.76893355c-48.57443783 47.05386723-71.37601536 24.97764693-81.12932409 15.51191836-12.99005326-12.55227733-33.98347776-12.47194112-46.83614436 0.14902955-12.90855197 12.63377863-12.83985863 33.1312128 0.15019463 45.68349013 22.29394432 21.58022997 47.76758045 32.33599829 74.48468594 32.3359983 32.68179513 0 67.18338503-16.01838763 100.01537366-47.84908175l106.23387989-102.7677696c23.88437219-23.10080171 37.09214834-53.9185573 37.09214833-86.67952469C1018.60682297 591.18320299 1005.39788288 560.43530467 981.51350955 537.2786176zM726.67817529 911.76285184c-12.90855197-12.56392021-33.91362048-12.63377863-46.9036726-0.08033621l-27.06173725 26.1978294c-23.44659741 22.66418973-61.63318443 22.66418973-85.07978183 0-11.26223758-10.89315499-17.46910094-25.40377885-17.46910094-40.7771466 0-15.44322503 6.20686336-29.88282653 17.46910094-40.77714659l99.5892406-96.34201941c20.63714987-19.99096605 59.45595107-49.35684551 87.75067762-22.0180059 12.99005326 12.63377863 33.99512064 12.49406293 46.91648057-0.13738667 12.90971591-12.62213575 12.7711653-33.11956992-0.15019463-45.68349013-48.13666304-46.54739797-119.22276807-37.95722126-181.14469774 21.93766968l-99.58924061 96.3536623c-23.88437219 23.15901611-37.02345501 53.90575047-37.023455 86.66788181s13.13908281 51.75296683 37.09214833 74.84212451c24.60972942 23.82615779 56.87703438 35.65307904 89.2013898 35.65307904 32.33599829 0 64.66151879-11.82692125 89.20255488-35.72293632l27.06173724-26.18735046C739.53084189 933.12419499 739.6111781 924.38382365 726.67817529 911.76285184zM831.13999587 300.02764914l-302.21054748 0c-12.55227733 0-4.21475214 29.28437817-4.21475214 41.9181568 0 12.62097067 0.04540757 4.54774101 12.6791862 4.54774101l295.16306205 0L831.13999587 300.02764914zM524.7135323 462.91967545c0 12.63261355 0.04540757 4.55938389 12.67918621 4.55938389l295.16306204 0-1.41578468-46.46589781-302.21054748 0C516.37600711 421.01316153 524.7135323 450.29870365 524.7135323 462.91967545z" p-id="3971" fill="#515151"></path></svg>