<?xml version="1.0" standalone="no"?><!DOCTYPE svg PUBLIC "-//W3C//DTD SVG 1.1//EN" "http://www.w3.org/Graphics/SVG/1.1/DTD/svg11.dtd"><svg t="1551939758677" class="icon" style="" viewBox="0 0 1024 1024" version="1.1" xmlns="http://www.w3.org/2000/svg" p-id="4719" xmlns:xlink="http://www.w3.org/1999/xlink" width="16" height="16"><defs><style type="text/css"></style></defs><path d="M512 1024c-283.105882 0-512-228.894118-512-512s228.894118-512 512-512 512 228.894118 512 512-228.894118 512-512 512z m0-963.764706c-246.964706 0-451.764706 204.8-451.764706 451.764706s204.8 451.764706 451.764706 451.764706c252.988235 0 451.764706-204.8 451.764706-451.764706s-198.776471-451.764706-451.764706-451.764706z" fill="#ff9d00" p-id="4720"></path><path d="M524.047059 512m-198.776471 0a198.776471 198.776471 0 1 0 397.552941 0 198.776471 198.776471 0 1 0-397.552941 0Z" fill="#ff9d00" p-id="4721"></path></svg>