<?xml version="1.0" standalone="no"?><!DOCTYPE svg PUBLIC "-//W3C//DTD SVG 1.1//EN" "http://www.w3.org/Graphics/SVG/1.1/DTD/svg11.dtd"><svg t="1552053282030" class="icon" style="" viewBox="0 0 2560 1024" version="1.1" xmlns="http://www.w3.org/2000/svg" p-id="2163" xmlns:xlink="http://www.w3.org/1999/xlink" width="37.5" height="15"><defs><style type="text/css"></style></defs><path d="M2374.749091 981.387636H185.250909c-37.981091 0-68.887273-30.277818-68.887273-67.490909v-795.927272c0-37.213091 30.906182-67.490909 68.887273-67.49091h2189.498182c37.981091 0 68.887273 30.277818 68.887273 67.49091v795.927272c0 37.213091-30.906182 67.490909-68.887273 67.490909z m-2189.498182-884.363636c-12.311273 0-22.341818 9.402182-22.341818 20.945455v795.927272c0 11.543273 10.030545 20.945455 22.341818 20.945455h2189.498182c12.311273 0 22.341818-9.402182 22.341818-20.945455v-795.927272c0-11.357091-10.216727-20.945455-22.341818-20.945455H185.250909z" fill="#ff9d00" p-id="2164"></path><path d="M989.090909 492.660364h-209.454545v-209.454546a23.272727 23.272727 0 0 0-46.545455 0v209.454546h-209.454545a23.272727 23.272727 0 0 0 0 46.545454h209.454545v209.454546a23.272727 23.272727 0 1 0 46.545455 0v-209.454546h209.454545a23.272727 23.272727 0 1 0 0-46.545454zM1476.584727 522.193455h162.909091v-42.821819h-185.274182c3.397818-20.48 5.585455-41.122909 6.516364-61.905454v-14.405818h151.761455v-42.845091h-88.459637a401.757091 401.757091 0 0 0 38.190546-82.850909l-43.287273-11.636364c-13.032727 36.608-27.927273 68.119273-44.683636 94.487273h-96.349091l28.858181-14.405818a789.643636 789.643636 0 0 0-51.223272-76.823273l-40.471273 19.549091c17.687273 22.039273 33.815273 45.940364 48.384 71.68h-99.584v42.845091h152.203636v14.405818c-0.930909 19.572364-3.421091 40.215273-7.424 61.905454h-171.310545v42.821819h159.185454a236.218182 236.218182 0 0 1-22.341818 44.218181c-25.762909 35.397818-74.309818 64.698182-145.687272 87.970909l24.203636 38.632728c71.68-22.341818 123.345455-54.481455 154.996364-96.372364 12.125091-16.430545 22.365091-35.84 30.72-58.181818 26.996364 66.094545 89.204364 118.993455 186.647272 158.72l26.088728-41.890909c-93.742545-32.535273-151.924364-76.893091-174.568728-133.096727zM1700.445091 673.466182l44.218182 19.572363a1504.930909 1504.930909 0 0 0 69.352727-164.770909l-39.586909-16.290909a1536.442182 1536.442182 0 0 1-73.984 161.489455zM1991.354182 637.626182v-110.289455h102.865454v-42.356363h-102.865454v-99.607273h115.456V342.109091h-115.456l1.419636-0.488727c-7.773091-24.203636-18.152727-49.803636-31.185454-76.8l-40.96 11.636363c10.216727 19.874909 19.688727 41.728 28.369454 65.629091h-119.133091v43.264h117.271273v99.607273h-104.238545v42.356364h104.238545v110.289454h-128.907636v43.287273h298.356363v-43.287273h-125.230545zM1703.261091 301.591273c35.397818 25.134545 62.836364 48.872727 82.385454 71.214545l31.185455-31.627636c-22.644364-23.598545-49.803636-46.871273-81.454545-69.818182l-32.116364 30.231273zM1770.263273 482.187636l31.185454-31.185454c-20.782545-23.575273-46.545455-47.010909-77.265454-70.283637l-31.627637 30.696728c32.256 24.529455 58.181818 48.128 77.707637 70.772363z" fill="#ff9d00" p-id="2165"></path></svg>