<?xml version="1.0" standalone="no"?><!DOCTYPE svg PUBLIC "-//W3C//DTD SVG 1.1//EN" "http://www.w3.org/Graphics/SVG/1.1/DTD/svg11.dtd"><svg t="1552150304406" class="icon" style="" viewBox="0 0 1024 1024" version="1.1" xmlns="http://www.w3.org/2000/svg" p-id="2278" xmlns:xlink="http://www.w3.org/1999/xlink" width="36" height="36"><defs><style type="text/css"></style></defs><path d="M76.097142 474.860125 497.281787 45.664016c9.924024-10.203386 26.284643-10.203386 36.208667 0l0 0c10.013051 10.112312 10.013051 26.78504 0 36.897352L112.305809 511.7585c-9.924024 10.203386-26.284643 10.203386-36.208667 0l0 0C66.083068 501.645165 66.083068 484.97346 76.097142 474.860125L76.097142 474.860125z" p-id="2279" fill="#ff9d00"></path><path d="M918.466432 511.7585 497.281787 82.561367c-10.013051-10.112312-10.013051-26.78504 0-36.897352l0 0c9.924024-10.203386 26.284643-10.203386 36.208667 0l421.184645 429.196109c10.013051 10.112312 10.013051 26.78504 0 36.897352l0 0C944.751075 521.961886 928.390455 521.961886 918.466432 511.7585L918.466432 511.7585z" p-id="2280" fill="#ff9d00"></path><path d="M94.245478 467.116767l94.411253 0c14.125719 0 25.659403 11.752672 25.659403 26.14752l0 0c0 14.394848-11.533684 26.14752-25.659403 26.14752l-94.411253 0c-14.125719 0-25.659403-11.752672-25.659403-26.14752l0 0C68.587098 478.869439 80.119759 467.116767 94.245478 467.116767L94.245478 467.116767z" p-id="2281" fill="#ff9d00"></path><path d="M842.114486 467.116767l94.411253 0c14.125719 0 25.659403 11.752672 25.659403 26.14752l0 0c0 14.394848-11.533684 26.14752-25.659403 26.14752l-94.411253 0c-14.125719 0-25.659403-11.752672-25.659403-26.14752l0 0C816.456107 478.869439 827.988768 467.116767 842.114486 467.116767L842.114486 467.116767z" p-id="2282" fill="#ff9d00"></path><path d="M162.998351 957.170942 162.998351 493.263264c0-14.394848 11.533684-26.14752 25.659403-26.14752l0 0c14.125719 0 25.659403 11.752672 25.659403 26.14752l0 463.907679c0 14.303774-11.533684 26.056446-25.659403 26.056446l0 0C174.531012 983.227388 162.998351 971.474716 162.998351 957.170942L162.998351 957.170942z" p-id="2283" fill="#ff9d00"></path><path d="M188.656731 931.024445l455.248462 0c14.036691 0 25.569352 11.752672 25.569352 26.14752l0 0c0 14.303774-11.533684 26.056446-25.569352 26.056446l-455.248462 0c-14.125719 0-25.659403-11.752672-25.659403-26.056446l0 0C162.998351 942.777117 174.531012 931.024445 188.656731 931.024445L188.656731 931.024445z" p-id="2284" fill="#ff9d00"></path><path d="M816.456107 957.170942 816.456107 493.263264c0-14.394848 11.533684-26.14752 25.659403-26.14752l0 0c14.036691 0 25.569352 11.752672 25.569352 26.14752l0 463.907679c0 14.303774-11.533684 26.056446-25.569352 26.056446l0 0C827.988768 983.227388 816.456107 971.474716 816.456107 957.170942L816.456107 957.170942z" p-id="2285" fill="#ff9d00"></path><path d="M618.245789 957.170942 618.245789 493.263264c0-14.394848 11.533684-26.14752 25.659403-26.14752l0 0c14.036691 0 25.569352 11.752672 25.569352 26.14752l0 463.907679c0 14.303774-11.533684 26.056446-25.569352 26.056446l0 0C629.779474 983.227388 618.245789 971.474716 618.245789 957.170942L618.245789 957.170942z" p-id="2286" fill="#ff9d00"></path><path d="M386.062729 467.116767l257.842463 0c14.036691 0 25.569352 11.752672 25.569352 26.14752l0 0c0 14.394848-11.533684 26.14752-25.569352 26.14752l-257.842463 0c-14.125719 0-25.659403-11.752672-25.659403-26.14752l0 0C360.403327 478.869439 371.935987 467.116767 386.062729 467.116767L386.062729 467.116767z" p-id="2287" fill="#ff9d00"></path><path d="M411.632081 493.263264 411.632081 756.011456c0 14.394848-11.533684 26.14752-25.569352 26.14752l0 0c-14.125719 0-25.659403-11.752672-25.659403-26.14752L360.403327 493.263264c0-14.394848 11.533684-26.14752 25.659403-26.14752l0 0C400.098397 467.116767 411.632081 478.869439 411.632081 493.263264L411.632081 493.263264z" p-id="2288" fill="#ff9d00"></path></svg>