<?xml version="1.0" standalone="no"?><!DOCTYPE svg PUBLIC "-//W3C//DTD SVG 1.1//EN" "http://www.w3.org/Graphics/SVG/1.1/DTD/svg11.dtd"><svg t="1551873328595" class="icon" style="" viewBox="0 0 1024 1024" version="1.1" xmlns="http://www.w3.org/2000/svg" p-id="2864" xmlns:xlink="http://www.w3.org/1999/xlink" width="28" height="28"><defs><style type="text/css"></style></defs><path d="M484.864 860.16l-154.112-182.272-153.6-182.784-15.36-18.432 11.264-21.504 77.312-145.92 10.24-18.944h503.808l10.24 18.944 77.312 145.92 11.264 21.504-15.36 18.432-154.112 182.272-154.112 182.784-27.136 32.256-27.648-32.256z m210.432-111.104l-6.144 75.264-64.512 31.232 75.264 6.144 31.232 64.512 6.144-75.264 64.512-31.232-75.264-6.144-31.232-64.512zM249.344 108.544L195.584 191.488l-94.208-4.096L184.32 241.152l-4.096 94.208 53.76-82.944 94.208 3.584-82.944-53.248 4.096-94.208z m74.24 253.44L407.552 450.56l78.336-88.576H323.584z m221.696 0L615.424 450.56l83.456-88.064h-153.6v-0.512z m179.712 7.168L640 459.264h133.12l-48.128-90.112z m-133.12 90.112l-75.776-95.232-83.456 95.232h159.232z m-209.408 0L299.008 370.688 247.296 467.456l138.24 163.84L465.92 726.528 374.784 537.6l21.504-10.24 116.224 240.64 116.224-240.64 21.504 10.24-91.136 188.416 79.872-94.72 125.44-148.48H347.648v-24.064h34.816z" fill="#00a680" p-id="2865"></path></svg>