<?xml version="1.0" standalone="no"?><!DOCTYPE svg PUBLIC "-//W3C//DTD SVG 1.1//EN" "http://www.w3.org/Graphics/SVG/1.1/DTD/svg11.dtd"><svg t="1551927550542" class="icon" style="" viewBox="0 0 1024 1024" version="1.1" xmlns="http://www.w3.org/2000/svg" p-id="2908" xmlns:xlink="http://www.w3.org/1999/xlink" width="26" height="26"><defs><style type="text/css"></style></defs><path d="M511.999488 960.227558c-247.298316 0-448.227558-200.929242-448.227557-448.227558S264.701173 63.772442 511.999488 63.772442 960.227046 264.701684 960.227046 512 759.297804 960.227558 511.999488 960.227558z m0-880.999099c-239.570307 0-432.771541 193.201234-432.771541 432.771541s193.201234 432.771541 432.771541 432.771541S944.771029 751.570307 944.771029 512 751.569796 79.228459 511.999488 79.228459zM680.471504 578.460668c-6.182816 20.092617-9.274224 32.458249-29.366841 54.096059-1.545192 1.545192 23.184025 9.274224 29.366841 27.820625 6.182816 17.002232 18.547425 44.822858-63.370283 52.550867-47.914266 4.6366-83.4629-24.730241-86.554308-24.730241h-21.638833c-1.545192 0-17.002232 24.730241-89.645716 24.730241-55.642275 0-69.552076-34.003442-58.733682-52.550867 10.819416-18.547425 29.366841-24.730241 27.820625-27.820625-12.364609-13.910824-21.638833-30.912034-27.820625-44.822859-1.545192-3.091408-3.091408-6.182816-3.091408-10.819416-1.545192-7.728008-17.002232 44.822858-34.003442 32.458249-17.002232-12.364609-15.456017-41.73145-4.636601-71.098291s38.640042-57.187467 38.640043-63.370283c1.545192-23.184025-3.091408-27.820626 0-32.458249 4.6366-13.910824 12.364609-7.728008 12.364608-15.456017 0-89.645716 68.006883-162.2892 153.015999-162.2892 83.4629 0 153.015999 72.644507 153.016 162.2892 0 3.091408 9.274224 0 13.910824 15.456017 1.545192 3.091408 1.545192 15.456017 0 32.458249 0 7.728008 23.184025 18.547425 35.549657 63.370283 12.364609 44.822858 0 66.461691-6.182816 71.098291-17.001209 13.911848-35.548634-38.640042-38.640042-30.912033z" p-id="2909" fill="#ff9d00"></path></svg>