<?xml version="1.0" standalone="no"?><!DOCTYPE svg PUBLIC "-//W3C//DTD SVG 1.1//EN" "http://www.w3.org/Graphics/SVG/1.1/DTD/svg11.dtd"><svg t="1552152148029" class="icon" style="" viewBox="0 0 1024 1024" version="1.1" xmlns="http://www.w3.org/2000/svg" p-id="3160" xmlns:xlink="http://www.w3.org/1999/xlink" width="25" height="25"><defs><style type="text/css"></style></defs><path d="M767.9 751.6c138.6-129.7 165.7-340.1 64.5-500.9C731.3 89.8 530.5 23.8 354.2 93.6 177.9 163.3 75.9 349 111.2 535.9S309.3 858 498.8 858H782c11.4 0.4 22.1-5.6 27.7-15.6 5.6-10 5-22.4-1.4-31.9l-40.4-58.9z m-66.8 11.3l24.3 34.1H498.8C314.5 797.1 165 647 165 462c0-185.1 149.4-335.1 333.8-335.1 141.1 0.7 266.4 90.4 313.2 224 46.7 133.6 4.8 282.3-104.8 371.4-12.2 9.9-14.8 27.6-6.1 40.6zM331.9 428.2c-15.6-9.1-34.9-9.1-50.6 0-15.7 9.1-25.3 25.8-25.3 44 0 18.1 9.6 34.9 25.3 44 15.6 9.1 34.9 9.1 50.6 0 15.6-9.1 25.3-25.8 25.3-44s-9.6-35-25.3-44z m202.3 0c-15.6-9.1-34.9-9.1-50.6 0-15.6 9.1-25.3 25.8-25.3 44 0 18.1 9.6 34.9 25.3 44 15.7 9.1 34.9 9.1 50.6 0 15.7-9.1 25.3-25.8 25.3-44s-9.6-35-25.3-44z m202.3 87.9c15.6-9.1 25.3-25.8 25.3-44 0-18.1-9.6-34.9-25.3-44-15.6-9.1-34.9-9.1-50.6 0-15.6 9.1-25.3 25.8-25.3 44 0 18.1 9.6 34.9 25.3 44 15.7 9.1 35 9.1 50.6 0z" p-id="3161" fill="#ff9d00"></path></svg>