<?xml version="1.0" standalone="no"?><!DOCTYPE svg PUBLIC "-//W3C//DTD SVG 1.1//EN" "http://www.w3.org/Graphics/SVG/1.1/DTD/svg11.dtd"><svg t="1552094417301" class="icon" style="" viewBox="0 0 1024 1024" version="1.1" xmlns="http://www.w3.org/2000/svg" p-id="2028" xmlns:xlink="http://www.w3.org/1999/xlink" width="50" height="50"><defs><style type="text/css"></style></defs><path d="M512 1013.76a508.59008 508.59008 0 0 1-51.26144-2.59072A502.19008 502.19008 0 0 1 410.88 1003.52c-16.16896-3.31776-32.33792-7.48544-48.128-12.3904s-31.01696-10.51648-46.08-16.90624-29.5936-13.40416-43.85792-21.16608S244.8384 936.96 231.424 927.91808s-26.2144-18.66752-38.62528-28.91776a507.42272 507.42272 0 0 1-68.02432-68.06528 504.3712 504.3712 0 0 1-54.016-80.00512A497.5616 497.5616 0 0 1 32.768 660.992q-7.34208-23.69536-12.288-48.03584A501.92384 501.92384 0 0 1 12.83072 563.2a507.63776 507.63776 0 0 1 0-102.47168A502.03648 502.03648 0 0 1 20.48 410.88c3.31776-16.16896 7.48544-32.33792 12.3904-48.128s10.51648-31.01696 16.90624-46.08 13.40416-29.5936 21.16608-43.85792S87.04 244.8384 96.09216 231.424s18.66752-26.2144 28.91776-38.62528a507.42272 507.42272 0 0 1 68.06528-68.02432 504.3712 504.3712 0 0 1 80.00512-54.016 497.5616 497.5616 0 0 1 89.92768-38.00064Q386.70336 25.42592 411.04384 20.48A501.97504 501.97504 0 0 1 460.8 12.83072a507.71968 507.71968 0 0 1 102.47168 0A502.24128 502.24128 0 0 1 613.12 20.48c16.16896 3.31776 32.33792 7.48544 48.128 12.3904s31.01696 10.51648 46.08 16.90624 29.5936 13.40416 43.85792 21.16608S779.1616 87.04 792.576 96.09216s26.2144 18.66752 38.62528 28.91776a507.42272 507.42272 0 0 1 68.02432 68.06528 504.3712 504.3712 0 0 1 54.016 80.00512 497.5616 497.5616 0 0 1 38.00064 89.92768q7.3728 23.69536 12.35968 48.03584A502.05696 502.05696 0 0 1 1011.16928 460.8a507.5968 507.5968 0 0 1 0 102.47168A502.13888 502.13888 0 0 1 1003.52 613.12q-4.99712 24.34048-12.3904 48.128-7.31136 23.4496-16.90624 46.08-9.51296 22.43584-21.16608 43.85792T927.91808 792.576q-13.52704 19.98848-28.91776 38.62528c-10.1888 12.288-21.0944 24.32-32.4096 35.6352s-23.31648 22.20032-35.65568 32.38912-25.31328 19.87584-38.63552 28.88704-27.1872 17.408-41.3696 25.12896a497.5616 497.5616 0 0 1-89.92768 38.00064q-23.69536 7.3728-48.03584 12.35968a501.9136 501.9136 0 0 1-49.7664 7.56736A508.09856 508.09856 0 0 1 512 1013.76z m117.1456-419.84v163.03104h25.1904v-71.51616h61.30688a31.50848 31.50848 0 0 0 31.52896-31.52896v-28.45696A31.52896 31.52896 0 0 0 715.66336 593.92zM482.304 593.92a31.5392 31.5392 0 0 0-31.55968 31.54944v99.97312A31.5392 31.5392 0 0 0 482.304 756.9408h66.88768a31.51872 31.51872 0 0 0 31.5392-31.52896v-99.97312A31.54944 31.54944 0 0 0 549.23264 593.92z m-205.50656 0v25.2416H330.752v137.78944h25.22112V619.14112h53.99552V593.92z m234.8032-335.872l189.27616 189.27616 22.97856-22.97856-212.2752-212.224L299.33568 424.3456l22.97856 22.97856L511.60064 258.048z m37.632 473.67168H482.304a6.27712 6.27712 0 0 1-6.2976-6.2976v-99.98336a6.23616 6.23616 0 0 1 1.8432-4.4544 6.144 6.144 0 0 1 4.4544-1.8432h66.88768a6.05184 6.05184 0 0 1 4.43392 1.8432 6.144 6.144 0 0 1 1.86368 4.4544v99.97312a6.31808 6.31808 0 0 1-6.2976 6.2976z m166.43072-71.51616H654.336v-41.0624h61.30688a6.28736 6.28736 0 0 1 6.2976 6.30784v28.45696a6.26688 6.26688 0 0 1-6.2976 6.28736z" p-id="2029" fill="#ff9d00"></path></svg>