<?xml version="1.0" standalone="no"?><!DOCTYPE svg PUBLIC "-//W3C//DTD SVG 1.1//EN" "http://www.w3.org/Graphics/SVG/1.1/DTD/svg11.dtd"><svg t="1552204564983" class="icon" style="" viewBox="0 0 1024 1024" version="1.1" xmlns="http://www.w3.org/2000/svg" p-id="3037" xmlns:xlink="http://www.w3.org/1999/xlink" width="22" height="22"><defs><style type="text/css"></style></defs><path d="M512 1024C229.876364 1024 0 794.123636 0 512S229.876364 0 512 0s512 229.876364 512 512-229.876364 512-512 512z m0-975.767273C256.395636 48.232727 48.232727 256.395636 48.232727 512S256.395636 975.767273 512 975.767273 975.767273 767.604364 975.767273 512 767.604364 48.232727 512 48.232727z m0 0" p-id="3038" fill="#515151"></path><path d="M509.591273 633.367273c-125.393455 0-227.467636-102.074182-227.467637-227.467637 0-125.370182 102.074182-227.467636 227.467637-227.467636 125.381818 0 227.467636 102.085818 227.467636 227.467636 0 125.381818-102.085818 227.467636-227.467636 227.467637z m0-406.702546c-98.862545 0-179.246545 80.372364-179.246546 179.234909 0 98.874182 80.384 179.246545 179.246546 179.246546s179.234909-80.372364 179.234909-179.246546c0-98.862545-80.372364-179.234909-179.234909-179.234909z m0 0" p-id="3039" fill="#515151"></path><path d="M512 1024c-131.816727 0-258.013091-50.641455-353.652364-141.451636l-10.449454-9.646546 4.014545-13.672727c44.206545-160.744727 191.301818-273.268364 357.678546-273.268364 168.797091 0 315.880727 114.129455 358.481454 276.491637l3.211637 13.661091-10.437819 9.646545C766.789818 974.976 643.013818 1024 512 1024zM202.554182 857.611636C287.755636 933.981091 397.056 975.767273 512 975.767273c113.326545 0 221.032727-40.983273 305.431273-115.735273C776.448 725.806545 651.857455 633.367273 509.591273 633.367273c-139.857455 0-264.448 91.636364-307.037091 224.244363z m0 0" p-id="3040" fill="#515151"></path></svg>