<?xml version="1.0" standalone="no"?><!DOCTYPE svg PUBLIC "-//W3C//DTD SVG 1.1//EN" "http://www.w3.org/Graphics/SVG/1.1/DTD/svg11.dtd"><svg t="1551961001182" class="icon" style="" viewBox="0 0 1088 1024" version="1.1" xmlns="http://www.w3.org/2000/svg" p-id="11296" xmlns:xlink="http://www.w3.org/1999/xlink" width="17" height="16"><defs><style type="text/css"></style></defs><path d="M952.576 481.856C946.176 472.64 792.576 256 544 256 295.36 256 141.888 472.64 135.424 481.856a41.6 41.6 0 0 0 0 47.488c6.4 9.216 160 225.856 408.576 225.856 248.64 0 402.112-216.64 408.576-225.856a41.6 41.6 0 0 0 0-47.488zM544 713.536c-229.76 0-374.4-208-374.4-208S314.24 297.6 544 297.6s374.4 208 374.4 208-144.64 208-374.4 208z m0-374.336a166.4 166.4 0 1 0 0 332.8 166.4 166.4 0 0 0 0-332.8z m0 291.2A124.928 124.928 0 0 1 419.2 505.6c0-68.8 56-124.8 124.8-124.8s124.8 56 124.8 124.8-56 124.8-124.8 124.8z" p-id="11297" fill="#2c2c2c"></path></svg>