<?xml version="1.0" standalone="no"?><!DOCTYPE svg PUBLIC "-//W3C//DTD SVG 1.1//EN" "http://www.w3.org/Graphics/SVG/1.1/DTD/svg11.dtd"><svg t="1552204779743" class="icon" style="" viewBox="0 0 1024 1024" version="1.1" xmlns="http://www.w3.org/2000/svg" p-id="5795" xmlns:xlink="http://www.w3.org/1999/xlink" width="22" height="22"><defs><style type="text/css"></style></defs><path d="M988.16 447.488 592.896 45.056C552.96 4.096 488.448 3.072 450.56 41.984L32.768 467.968c-6.144 6.144-35.84 38.912-25.6 73.728 7.168 23.552 29.696 39.936 66.56 49.152l79.872-1.024 0 315.392c0 58.368 47.104 104.448 104.448 104.448 0 0 73.728 0 164.864 0 23.552 2.048 52.224 0 82.944 0 0 0 0 0 0 0l12.288 0 13.312 0c78.848 0 143.36-64.512 143.36-144.384L674.816 734.208c0-79.872-64.512-144.384-143.36-144.384l-25.6 0c-78.848 0-143.36 64.512-143.36 144.384l0 209.92c0 5.12 0 9.216 1.024 13.312-51.2 0-86.016 0-86.016 0-52.224 0-67.584-41.984-67.584-94.208L209.92 555.008l-98.304 0C76.8 547.84 57.344 533.504 51.2 512c-9.216-31.744 97.28-100.352 102.4-105.472L475.136 91.136c34.816-34.816 66.56-33.792 102.4 3.072l355.328 359.424c19.456 19.456 46.08 39.936 10.24 76.8-6.144 6.144-15.36 12.288-25.6 17.408l-4.096 2.048-75.776 1.024 0 312.32c0 49.152-37.888 89.088-86.016 93.184l0 53.248L778.24 1009.664c57.344 0 104.448-47.104 104.448-104.448L882.688 584.704l83.968-1.024 4.096-2.048c11.264-6.144 20.48-12.288 27.648-19.456C1039.36 521.216 1009.664 468.992 988.16 447.488zM413.696 750.592c0-59.392 43.008-107.52 95.232-107.52l17.408 0c53.248 0 95.232 48.128 95.232 107.52l0 98.304c0 59.392-43.008 107.52-95.232 107.52l-17.408 0c-11.264 0-22.528 0-32.768 1.024-3.072 0-5.12 0-8.192 0-32.768 0-55.296-6.144-55.296-49.152L412.672 750.592z" p-id="5796"></path></svg>