<?xml version="1.0" standalone="no"?><!DOCTYPE svg PUBLIC "-//W3C//DTD SVG 1.1//EN" "http://www.w3.org/Graphics/SVG/1.1/DTD/svg11.dtd"><svg t="1552054394547" class="icon" style="" viewBox="0 0 1024 1024" version="1.1" xmlns="http://www.w3.org/2000/svg" p-id="3076" xmlns:xlink="http://www.w3.org/1999/xlink" width="24" height="24"><defs><style type="text/css"></style></defs><path d="M773.45792 1005.42976c-14.40256 0-30.58688-4.13184-45.59872-11.63776l-214.29248-107.18208-215.61856 107.008c-13.65504 7.2704-29.2864 11.08992-45.22496 11.08992a96.16384 96.16384 0 0 1-57.5488-18.8416c-30.17728-22.63552-45.63968-61.8496-38.5024-97.55648l44.09856-228.76672L31.744 501.99552a104.05888 104.05888 0 0 1-26.28096-100.6592l0.33792-1.16224c12.288-36.82816 42.77248-62.63296 79.73376-67.584l234.83904-42.7008L425.7792 75.81184c16.93184-33.8944 51.36896-55.67488 87.78752-55.67488 37.9904 0 73.3184 22.59968 88.13056 56.28928l105.06752 213.4016 234.87488 41.0624A95.67232 95.67232 0 0 1 1019.904 399.26272a98.97984 98.97984 0 0 1-24.4736 101.00224l-0.57856 0.57856-168.5504 158.72 42.5984 229.17632c6.8608 36.65408-7.71584 73.66656-38.06208 96.73728a90.33728 90.33728 0 0 1-57.37984 19.95264z" fill="#1296db" p-id="3077"></path></svg>