<?xml version="1.0" standalone="no"?><!DOCTYPE svg PUBLIC "-//W3C//DTD SVG 1.1//EN" "http://www.w3.org/Graphics/SVG/1.1/DTD/svg11.dtd"><svg t="1551960814376" class="icon" style="" viewBox="0 0 1024 1024" version="1.1" xmlns="http://www.w3.org/2000/svg" p-id="10320" xmlns:xlink="http://www.w3.org/1999/xlink" width="33" height="33"><defs><style type="text/css"></style></defs><path d="M858.368 49.984 165.632 49.984c-63.744 0-115.456 51.776-115.456 115.584l0 692.928c0 63.872 51.712 115.52 115.456 115.52l692.736 0c63.744 0 115.456-51.648 115.456-115.52L973.824 165.568C973.824 101.76 922.112 49.984 858.368 49.984zM927.552 823.872c0 57.344-46.528 104-103.872 104L200.256 927.872c-57.408 0-103.936-46.656-103.936-104L96.32 200.128c0-57.344 46.528-103.936 103.936-103.936l623.424 0c57.344 0 103.872 46.592 103.872 103.936L927.552 823.872zM458.88 257.856 225.472 257.856l0 66.56 85.568 0 0 367.744c0 6.144-1.088 10.496-3.072 12.864-2.048 2.496-7.104 3.776-15.104 3.776-8 0-26.432-2.88-55.104-8.64 12.736 20.096 20.096 48.896 22.144 86.272 36.992-2.88 66.88-9.6 89.92-20.352 22.976-10.624 34.496-32.256 34.496-64.768L384.32 324.352 458.88 324.352 458.88 257.856zM622.016 702.656c39.424 25.344 79.68 56.128 120.768 92.352l60.928-58.496c-48-32.896-92.992-62.016-134.848-87.488L622.016 702.656zM655.296 515.328c0-16 1.792-28.096 5.504-36.288 1.664-4.16 2.496-7.168 2.496-9.28 0-5.312-5.376-8.064-15.936-8.064L578.944 461.696l0 63.424c0 67.776-10.432 114.88-31.36 141.12L547.584 442.048l135.36 0 0 213.12 76.416 0L759.36 373.056l-110.272 0 10.496-56 126.272 0L785.856 248 470.592 248l0 68.992 107.776 0C576.256 335.04 573.632 353.664 570.304 373.056l-96 0 0 295.104 71.424 0c-23.808 30.72-73.28 54.72-148.416 72.128 23.424 19.648 43.264 41.6 59.776 65.856 64.832-28.352 114.112-60.608 147.776-97.024 33.6-36.48 50.496-85.12 50.496-146.368L655.36 515.328z" p-id="10321" fill="#f9d000"></path></svg>