<?xml version="1.0" standalone="no"?><!DOCTYPE svg PUBLIC "-//W3C//DTD SVG 1.1//EN" "http://www.w3.org/Graphics/SVG/1.1/DTD/svg11.dtd"><svg t="1552204482614" class="icon" style="" viewBox="0 0 1024 1024" version="1.1" xmlns="http://www.w3.org/2000/svg" p-id="2084" xmlns:xlink="http://www.w3.org/1999/xlink" width="22" height="22"><defs><style type="text/css"></style></defs><path d="M908.8 960H115.2c-64 0-115.2-51.2-115.2-115.2V179.2C0 115.2 51.2 64 115.2 64h793.6c64 0 115.2 51.2 115.2 115.2v665.6c0 64-51.2 115.2-115.2 115.2zM115.2 128c-25.6 0-51.2 25.6-51.2 51.2v665.6c0 25.6 25.6 51.2 51.2 51.2h793.6c25.6 0 51.2-25.6 51.2-51.2V179.2c0-25.6-25.6-51.2-51.2-51.2H115.2z" fill="#ffffff" p-id="2085"></path><path d="M358.4 563.2c-96 0-172.8-76.8-172.8-172.8s76.8-172.8 172.8-172.8 172.8 76.8 172.8 172.8-76.8 172.8-172.8 172.8z m0-275.2c-57.6 0-108.8 44.8-108.8 108.8s44.8 108.8 108.8 108.8S467.2 448 467.2 390.4s-51.2-102.4-108.8-102.4z" fill="#ffffff" p-id="2086"></path><path d="M588.8 793.6c-19.2 0-32-12.8-32-32 0-108.8-89.6-198.4-198.4-198.4s-198.4 89.6-198.4 198.4c0 19.2-12.8 32-32 32s-32-12.8-32-32c0-147.2 121.6-262.4 262.4-262.4s262.4 121.6 262.4 262.4c0 19.2-12.8 32-32 32zM902.4 364.8h-192c-19.2 0-32-12.8-32-32s12.8-32 32-32h192c19.2 0 32 12.8 32 32s-19.2 32-32 32zM902.4 563.2h-192c-19.2 0-32-12.8-32-32s12.8-32 32-32h192c19.2 0 32 12.8 32 32s-19.2 32-32 32zM902.4 761.6h-192c-19.2 0-32-12.8-32-32s12.8-32 32-32h192c19.2 0 32 12.8 32 32s-19.2 32-32 32z" fill="#ffffff" p-id="2087"></path></svg>