<?xml version="1.0" standalone="no"?><!DOCTYPE svg PUBLIC "-//W3C//DTD SVG 1.1//EN" "http://www.w3.org/Graphics/SVG/1.1/DTD/svg11.dtd"><svg t="1552208408611" class="icon" style="" viewBox="0 0 1374 1024" version="1.1" xmlns="http://www.w3.org/2000/svg" p-id="8259" xmlns:xlink="http://www.w3.org/1999/xlink" width="29.51953125" height="22"><defs><style type="text/css"></style></defs><path d="M1019.214493 1024l0-60.723543 272.611426 0c11.668897 0 21.119407-9.514414 21.119407-21.181485L1312.945325 81.906854c0-11.668897-9.45051-21.146794-21.119407-21.146794L655.751459 60.76006 655.751459 0l636.07446 0c45.083461 0 81.84295 36.737579 81.84295 81.906854l0 860.188118c0 45.174752-36.759489 81.905028-81.84295 81.905028L1019.214493 1024 1019.214493 1024zM809.008202 1015.77645l0-3.109393c0-204.8-166.592625-371.392625-371.421839-371.392625-204.763483 0-371.385322 166.592625-371.385322 371.392625l0 3.109393L0 1015.77645l0-3.109393c0-196.063391 130.782569-367.74096 319.213979-420.783225-111.397703-47.292718-185.61415-158.484102-185.61415-279.63723 0-167.613266 136.345881-303.986534 303.957321-303.986534 167.613266 0 303.959147 136.373269 303.959147 303.986534 0 121.153127-74.216447 232.344512-185.61415 279.63723C744.333557 644.926097 875.059525 816.632879 875.116126 1012.667057l0 3.109393L809.008202 1015.77645 809.008202 1015.77645zM437.586363 74.395378c-131.111219 0-237.785493 106.6761-237.785493 237.794622 0 131.14591 106.639583 237.785493 237.785493 237.785493S675.37916 443.363298 675.37916 312.190001C675.37916 181.100692 568.732273 74.395378 437.586363 74.395378L437.586363 74.395378zM896.083988 649.141944 896.083988 580.72982l319.849369 0 0 68.412125L896.083988 649.141944 896.083988 649.141944zM784.030811 442.437601l0-68.326311 431.98836 0 0 68.326311L784.030811 442.437601 784.030811 442.437601zM784.030811 248.526867l0-68.324485 431.98836 0 0 68.324485L784.030811 248.526867 784.030811 248.526867zM784.030811 248.526867" fill="#2c2c2c" p-id="8260"></path></svg>