<?xml version="1.0" standalone="no"?><!DOCTYPE svg PUBLIC "-//W3C//DTD SVG 1.1//EN" "http://www.w3.org/Graphics/SVG/1.1/DTD/svg11.dtd"><svg t="1552204881821" class="icon" style="" viewBox="0 0 1024 1024" version="1.1" xmlns="http://www.w3.org/2000/svg" p-id="7419" xmlns:xlink="http://www.w3.org/1999/xlink" width="22" height="22"><defs><style type="text/css"></style></defs><path d="M708.608 595.968c-36.864 0-67.584-30.72-67.584-67.584 0-36.864 30.72-67.584 67.584-67.584 36.864 0 67.584 30.72 67.584 67.584 0 36.864-30.72 67.584-67.584 67.584z m0-98.304c-16.384 0-26.624 14.336-26.624 26.624 0 14.336 14.336 26.624 26.624 26.624 16.384 0 26.624-14.336 26.624-26.624 2.048-12.288-8.192-26.624-26.624-26.624z" p-id="7420"></path><path d="M833.536 911.36h-4.096c-43.008 0-593.92 0-651.264-4.096-61.44 0-81.92-51.2-81.92-81.92V212.992C102.4 159.744 149.504 139.264 190.464 139.264h651.264c53.248 10.24 71.68 53.248 71.68 73.728 0 24.576 4.096 587.776 0 622.592-8.192 55.296-45.056 75.776-79.872 75.776M192.512 180.224c-20.48 0-51.2 4.096-53.248 36.864v604.16c0 6.144 4.096 40.96 40.96 40.96 61.44 0 649.216 4.096 655.36 4.096v20.48-16.384c10.24 0 32.768-4.096 40.96-32.768v-614.4c0-4.096-4.096-30.72-32.768-36.864h-186.368C462.848 184.32 198.656 184.32 198.656 184.32l-6.144-4.096z" p-id="7421"></path><path d="M872.448 677.888H655.36c-43.008-10.24-129.024-51.2-131.072-139.264 0-47.104 14.336-88.064 40.96-118.784 43.008-43.008 108.544-47.104 110.592-47.104h196.608c10.24 0 20.48 10.24 20.48 20.48s-10.24 20.48-20.48 20.48H675.84s-51.2 0-81.92 32.768c-20.48 20.48-30.72 51.2-30.72 88.064 4.096 73.728 83.968 94.208 98.304 98.304h208.896c10.24 0 20.48 10.24 20.48 20.48s-6.144 24.576-18.432 24.576z" p-id="7422"></path></svg>