<?xml version="1.0" standalone="no"?><!DOCTYPE svg PUBLIC "-//W3C//DTD SVG 1.1//EN" "http://www.w3.org/Graphics/SVG/1.1/DTD/svg11.dtd"><svg t="1552054418379" class="icon" style="" viewBox="0 0 1024 1024" version="1.1" xmlns="http://www.w3.org/2000/svg" p-id="3911" xmlns:xlink="http://www.w3.org/1999/xlink" width="24" height="24"><defs><style type="text/css"></style></defs><path d="M907.636364 139.636364c11.636364 0 23.272727 9.309091 23.272727 23.272727v186.181818c0 11.636364-11.636364 23.272727-23.272727 23.272727-13.963636 0-23.272727-9.309091-23.272728-23.272727V162.909091c0-13.963636 9.309091-23.272727 23.272728-23.272727z" fill="#d4237a" p-id="3912"></path><path d="M437.527273 691.2c-9.309091 11.636364-25.6 11.636364-34.909091 4.654545-9.309091-9.309091-9.309091-25.6 0-34.90909l449.163636-488.727273c9.309091-11.636364 25.6-11.636364 34.909091-4.654546 9.309091 9.309091 9.309091 25.6 0 34.909091l-449.163636 488.727273z" fill="#d4237a" p-id="3913"></path><path d="M884.363636 512v325.818182c0 13.963636-9.309091 23.272727-23.272727 23.272727H116.363636c-13.963636 0-23.272727-9.309091-23.272727-23.272727V209.454545c0-13.963636 9.309091-23.272727 23.272727-23.272727h418.909091V139.636364H116.363636C76.8 139.636364 46.545455 169.890909 46.545455 209.454545v628.363637c0 39.563636 30.254545 69.818182 69.818181 69.818182h744.727273c39.563636 0 69.818182-30.254545 69.818182-69.818182V512h-46.545455zM930.909091 162.909091c0 13.963636-11.636364 23.272727-23.272727 23.272727h-209.454546c-11.636364 0-23.272727-9.309091-23.272727-23.272727s9.309091-23.272727 23.272727-23.272727h209.454546c11.636364 0 23.272727 9.309091 23.272727 23.272727z" fill="#d4237a" p-id="3914"></path></svg>