<?xml version="1.0" standalone="no"?><!DOCTYPE svg PUBLIC "-//W3C//DTD SVG 1.1//EN" "http://www.w3.org/Graphics/SVG/1.1/DTD/svg11.dtd"><svg t="1551927579984" class="icon" style="" viewBox="0 0 1024 1024" version="1.1" xmlns="http://www.w3.org/2000/svg" p-id="3750" xmlns:xlink="http://www.w3.org/1999/xlink" width="26" height="26"><defs><style type="text/css"></style></defs><path d="M511.895623 932.61978c-231.988632 0-420.724157-188.736549-420.724157-420.725181s188.735525-420.724157 420.724157-420.724157 420.724157 188.735525 420.724157 420.724157-188.735525 420.72518-420.724157 420.725181z m0-812.764018c-216.170364 0-392.038838 175.868473-392.038838 392.038837s175.868473 392.038838 392.038838 392.038838 392.038838-175.868473 392.038837-392.038838-175.868473-392.038838-392.038837-392.038837z" fill="#ff9d00" p-id="3751"></path><path d="M594.861196 436.495352c5.372358 0 10.694573 0.391926 15.97381 0.971118-14.352893-66.844407-85.827761-116.514667-167.416987-116.514667-91.211375 0-165.911704 62.170968-165.911704 141.126204 0 45.553499 24.840758 82.981946 66.38085 112.01519l-16.585747 49.910736 57.994855-29.077245c20.762883 4.094248 37.413098 8.31027 58.121746 8.310269 5.207605 0 10.378371-0.251733 15.498995-0.655939-3.247974-11.093662-5.120624-22.711258-5.120624-34.765805 0-72.489988 62.225203-131.319861 141.064806-131.319861z m-89.223091-44.986587c12.496615 0 20.75572 8.211009 20.75572 20.702508 0 12.43624-8.259104 20.779256-20.75572 20.779255-12.43624 0-24.905226-8.341992-24.905226-20.779255 0-12.491499 12.468986-20.702508 24.905226-20.702508z m-116.120694 41.48074c-12.44238 0-24.988114-8.341992-24.988114-20.779256 0-12.491499 12.545734-20.702508 24.988114-20.702507s20.706601 8.211009 20.706601 20.702507c0 12.437264-8.264221 20.779256-20.706601 20.779256z" fill="#ff9d00" p-id="3752"></path><path d="M746.289024 565.827953c0-66.342987-66.375733-120.42472-140.933823-120.42472-78.960353 0-141.131321 54.082756-141.131321 120.42472 0 66.440202 62.170968 120.389928 141.131321 120.389927 16.514115 0 33.181727-4.149507 49.783847-8.308223l45.520753 24.927739-12.486383-41.481763c33.29736-24.981974 58.115606-58.119699 58.115606-95.52768z m-186.683796-20.768c-8.266267 0-16.590863-8.209986-16.590864-16.607236 0-8.255011 8.325619-16.585747 16.590864-16.585747 12.544711 0 20.756743 8.330736 20.756743 16.585747-0.001023 8.397251-8.212032 16.607236-20.756743 16.607236z m91.269703 0c-8.209986 0-16.491603-8.209986-16.491603-16.607236 0-8.255011 8.281617-16.585747 16.491603-16.585747 12.42703 0 20.757766 8.330736 20.757766 16.585747-0.001023 8.397251-8.331759 16.607236-20.757766 16.607236z" fill="#ff9d00" p-id="3753"></path></svg>