<?xml version="1.0" standalone="no"?><!DOCTYPE svg PUBLIC "-//W3C//DTD SVG 1.1//EN" "http://www.w3.org/Graphics/SVG/1.1/DTD/svg11.dtd"><svg t="1551927506204" class="icon" style="" viewBox="0 0 1024 1024" version="1.1" xmlns="http://www.w3.org/2000/svg" p-id="2059" xmlns:xlink="http://www.w3.org/1999/xlink" width="26" height="26"><defs><style type="text/css"></style></defs><path d="M512 56.932972a452.686556 452.686556 0 1 1-177.146842 35.70709 453.678419 453.678419 0 0 1 177.146842-35.70709m0-51.973654a507.040682 507.040682 0 1 0 507.040682 507.040682A507.040682 507.040682 0 0 0 512 4.959318z m0 0" p-id="2060" fill="#ff9d00"></path><path d="M451.893065 703.628051c-91.05308 4.165827-164.649361-41.459899-164.649361-102.161953s73.596281-109.700116 164.649361-113.865943 165.046106 33.326618 165.046106 94.028671-73.794653 117.833398-165.046106 121.999225m194.008524-198.372724c-21.622627-4.165827-11.108873-15.869818-11.108873-15.869818a50.98179 50.98179 0 0 0-4.165827-59.511817c-31.541263-31.541263-107.914762 3.967454-107.914762 3.967455-29.16079 9.125145-21.424254-4.165827-17.258427-26.581945 0-26.383572-9.125145-71.215808-86.68888-44.832236s-144.415343 119.023634-144.415343 119.023635c-46.220845 61.693917-39.674545 109.501744-39.674545 109.501743 11.505618 105.534289 123.586207 134.496707 210.870206 141.439752 91.846571 7.141418 215.631151-31.739636 253.123595-111.485471s-30.747772-111.485471-52.370399-115.84967" p-id="2061" fill="#ff9d00"></path><path d="M464.588919 602.061217a10.513754 10.513754 0 0 1-15.869818-1.388609 13.489345 13.489345 0 0 1 3.769082-17.4568 11.108873 11.108873 0 0 1 16.861681 1.388609 14.084463 14.084463 0 0 1-4.760945 17.4568m-53.957381 46.022471a25.193336 25.193336 0 0 1-30.946145-22.217745 32.731499 32.731499 0 0 1 29.359163-30.946144c19.837272-1.785355 32.533127 9.521891 32.533127 23.804726a33.128245 33.128245 0 0 1-30.946145 29.359163m23.209609-120.412243a85.895389 85.895389 0 0 0-81.134444 96.409144 47.411081 47.411081 0 0 0 25.193336 41.063154 105.931034 105.931034 0 0 0 136.678806-24.598218c27.970554-35.905463 11.505618-123.586207-79.349089-112.87408m256.694304-59.511817a14.679582 14.679582 0 0 0 14.679582-12.497482 4.959318 4.959318 0 0 0 0-1.586981c11.108873-100.773344-82.523053-83.316544-82.523053-83.316544a15.076327 15.076327 0 0 0-14.877954 15.076327 14.877954 14.877954 0 0 0 14.877954 14.877954c67.248353-14.679582 52.568772 52.568772 52.568772 52.568772a15.076327 15.076327 0 0 0 15.076327 14.877954" p-id="2062" fill="#ff9d00"></path><path d="M679.624952 293.790004a187.660597 187.660597 0 0 0-74.98489 0h-2.1821c-0.793491 0 0 0 0 0a22.019372 22.019372 0 0 0 5.951182 43.046881 101.170089 101.170089 0 0 0 19.837272-4.760945 115.05618 115.05618 0 0 1 108.311507 53.560635 97.797753 97.797753 0 0 1 6.744673 72.604417 63.082526 63.082526 0 0 0-4.3642 21.027509 19.837272 19.837272 0 0 0 21.821 19.837272c10.117009 0 18.448663-1.388609 21.027508-18.448663 35.905463-119.023634-43.641999-175.163115-101.566834-188.652461" p-id="2063" fill="#ff9d00"></path></svg>