<?xml version="1.0" standalone="no"?><!DOCTYPE svg PUBLIC "-//W3C//DTD SVG 1.1//EN" "http://www.w3.org/Graphics/SVG/1.1/DTD/svg11.dtd"><svg t="1552006722072" class="icon" style="" viewBox="0 0 1024 1024" version="1.1" xmlns="http://www.w3.org/2000/svg" p-id="4271" xmlns:xlink="http://www.w3.org/1999/xlink" width="28" height="28"><defs><style type="text/css"></style></defs><path d="M867.8 361.7c-19.4-46-47.3-87.3-82.8-122.8s-76.8-63.3-122.8-82.8c-47.6-20.1-98.2-30.4-150.3-30.4S409.3 136 361.7 156.1c-46 19.5-87.3 47.3-122.8 82.8s-63.3 76.8-82.8 122.8c-20.2 47.6-30.4 98.2-30.4 150.3s10.2 102.7 30.4 150.3c19.4 46 47.3 87.3 82.8 122.8s76.8 63.3 122.8 82.8c47.6 20.2 98.2 30.4 150.3 30.4s102.7-10.2 150.3-30.4c46-19.5 87.3-47.3 122.8-82.8s63.3-76.8 82.8-122.8c20.2-47.6 30.4-98.2 30.4-150.3S888 409.3 867.8 361.7zM512 862.2c-110.9 0-209.9-51.8-274.1-132.4C276.4 612.5 387.8 531.3 512 531.3s235.6 81.2 274.1 198.5C721.9 810.4 622.9 862.2 512 862.2zM407.8 391.1c0-57.5 46.7-104.2 104.2-104.2s104.2 46.7 104.2 104.2S569.5 495.3 512 495.3s-104.2-46.7-104.2-104.2zM811.1 694c-8.7-20.6-19.5-40.3-32.3-58.8-19.5-28.2-43.3-53-70.6-73.8-34.8-26.5-73.8-45.3-115.2-55.9 35.8-25.4 59.1-67.2 59.1-114.3 0-77.3-62.9-140.2-140.2-140.2s-140.2 62.9-140.2 140.2c0 47.1 23.4 88.9 59.2 114.3-41.4 10.6-80.4 29.5-115.2 55.9-27.3 20.8-51.1 45.6-70.6 73.8-12.8 18.5-23.6 38.2-32.3 58.8-32.4-53.1-51.1-115.4-51.1-182 0-193.1 157.1-350.2 350.2-350.2S862.2 318.9 862.2 512c0 66.6-18.7 128.9-51.1 182z" p-id="4272"></path></svg>